<?xml version="1.0" encoding="UTF-8"?>
<svg width="18" height="18" viewBox="0 0 18 18" xmlns="http://www.w3.org/2000/svg">
    <path d="M15.145 13.74c-.51.92-.755 1.33-1.415 2.145-.915 1.13-2.205 2.54-3.805 2.55-1.42.02-1.78-.915-3.7-.905-1.92.01-2.315.925-3.735.905-1.6-.01-2.825-1.285-3.74-2.415C-3.145 13.13-.97 9.02.544 6.615c.86-1.37 2.355-2.17 3.715-2.19 1.45-.025 2.695.955 3.545.955.85 0 2.29-1.18 4.025-1.01.685.03 2.61.27 3.845 2.045-3.515 2.26-2.94 8.145.47 7.325zM11.265.5c-2.856.115-5.266 3.09-4.936 5.59 2.656.205 5.066-2.77 4.936-5.59z" fill="#000000" fill-rule="nonzero"/>
</svg> 